<svg width="17" height="18" viewBox="0 0 17 18" fill="none" xmlns="http://www.w3.org/2000/svg">
<path d="M5.5 2.33013L1.5 9.25833C0.836959 10.4068 0.657282 11.7715 1.0005 13.0524C1.34371 14.3333 2.18171 15.4254 3.33013 16.0885C4.47855 16.7515 5.84332 16.9312 7.12422 16.588C8.40512 16.2447 9.49721 15.4068 10.1603 14.2583L14.9103 6.03109C15.3744 5.22719 15.5002 4.27185 15.2599 3.37522C15.0197 2.47859 14.4331 1.71413 13.6292 1.25C12.8253 0.785871 11.8699 0.660098 10.9733 0.900349C10.0767 1.1406 9.31221 1.72719 8.84808 2.53109L4.59808 9.8923C4.33286 10.3517 4.26099 10.8976 4.39828 11.4099C4.53556 11.9223 4.87076 12.3591 5.33013 12.6244C5.7895 12.8896 6.33541 12.9614 6.84776 12.8242C7.36012 12.6869 7.79696 12.3517 8.06218 11.8923L11.5622 5.83013" stroke="#0C8CE9" stroke-width="1.5" stroke-linecap="round" stroke-linejoin="round"/>
</svg>
