<svg width="71" height="47" viewBox="0 0 71 47" fill="none" xmlns="http://www.w3.org/2000/svg">
<g clip-path="url(#clip0_174_682)">
<path d="M64.2966 20.7334V22.9031H65.0825C65.9115 22.9031 66.5613 22.5939 66.5613 21.7692C66.5613 21.2232 66.2932 20.7311 65.2483 20.7311C64.9212 20.7311 64.744 20.7195 64.2966 20.7334ZM62.125 28.3977V18.606C62.6543 18.606 65.0825 18.606 65.355 18.606C67.9469 18.606 68.869 19.9344 68.869 21.741C68.869 23.5593 67.7833 24.302 67.2676 24.5691L70.0138 28.3977H67.3812L65.0962 25.0025H64.2966V28.3977H62.125Z" fill="#FF4438"/>
<path d="M59.1673 24.1849C59.1673 27.1793 57.3526 28.3977 55.3502 28.3977C52.9478 28.3977 51.2783 26.9566 51.2783 24.0864V18.606H53.4149V23.6108C53.4149 25.1361 53.8551 26.2982 55.3502 26.2982C56.6442 26.2982 57.0308 25.3048 57.0308 23.7372V18.606H59.1673V24.1849Z" fill="#FF4438"/>
<path d="M46.3472 47H0V0H46.3472V16.0808H44.1986V2.17882H2.14631V44.8212H44.1986V30.8142H46.3472V47Z" fill="#FF4438"/>
<path d="M36.8036 28.3977L32.5117 22.5217V28.3977H30.5703V18.606H32.2261L36.5201 24.5077L36.5158 18.606H38.4549L38.4593 28.3977H36.8036Z" fill="#FF4438"/>
<path d="M41.417 18.606H48.3198V20.7039H45.8196V28.3977H43.9152V20.7039H41.417V18.606Z" fill="#FF4438"/>
<path d="M9.86133 18.606H11.9586V22.8719L14.9597 18.606H17.476L14.0296 23.1249L17.7502 28.3977H15.0914L11.9586 23.7384V28.3977H9.86133V18.606Z" fill="#FF4438"/>
<path d="M23.1738 26.3697C24.7603 26.3697 25.5834 25.098 25.5834 23.5019C25.5834 21.7703 24.5217 20.6339 23.1738 20.6339C21.7911 20.6339 20.7663 21.7703 20.7663 23.5019C20.7663 25.1236 21.8384 26.3697 23.1738 26.3697ZM23.1738 18.606C25.7151 18.606 27.6123 20.4845 27.6123 23.5019C27.6123 26.3697 25.7151 28.3977 23.1738 28.3977C20.6346 28.3977 18.7373 26.5168 18.7373 23.5019C18.7373 20.7552 20.5153 18.606 23.1738 18.606Z" fill="#FF4438"/>
</g>
<defs>
<clipPath id="clip0_174_682">
<rect width="71" height="47" fill="white"/>
</clipPath>
</defs>
</svg>
