<svg width="240" height="40" viewBox="0 0 240 40" fill="none" xmlns="http://www.w3.org/2000/svg">
<path fill-rule="evenodd" clip-rule="evenodd" d="M177.016 19.0377V34.8954H170.794V19.0377H177.016ZM148.91 34.8954V8.28452H155.175V25.9833L170.794 8.28452H177.016V17.1548H170.794L155.175 34.8954H148.91ZM133.757 8.28452H145.82V13.5983H133.757V8.28452ZM125.587 34.8954V13.5983H112.127V8.28452H131.852C131.852 17.1548 131.852 26.0251 131.852 34.8954H125.587ZM80.5926 34.8954V29.5816H104.339V24.2678H88.7196V18.954H107.429L110.519 21.6318V32.2594L107.429 34.8954H80.5926ZM86.8571 27.6988H80.5926V8.28452H109.037V13.5983H86.8571V13.6402V27.6988ZM218.243 25.3975V34.8954H215.111V8.32635H234.751C237.63 8.32635 240 10.6695 240 13.5146V20.251C240 23.0962 237.63 25.3975 234.751 25.3975H218.243ZM218.243 11.4226V22.3013H234.751C235.894 22.3013 236.868 21.3807 236.868 20.251V13.5146C236.868 12.3431 235.937 11.4226 234.751 11.4226H218.243ZM202.667 21.6318C203.217 22.1757 203.64 22.8034 204.063 23.431L212.148 34.8954H208.339L201.481 25.1883C201.101 24.6025 200.466 23.6402 199.831 23.3473C199.577 23.2218 199.28 23.1799 199.026 23.1799H186.328V34.8954H183.196V8.32635H186.328V20.0837H199.026C199.28 20.0837 199.577 20.0418 199.788 19.9163C200.423 19.6234 201.101 18.6192 201.481 18.0335L208.339 8.32635H212.19L204.063 19.749C203.64 20.4184 203.217 21.046 202.667 21.6318ZM3.13229 3.09622V16.569H17.3968V18.41H3.13229V36.9456H15.5344V30.795H9.22751V27.6988H45.5026V30.795H17.3968V36.9456H54.5185L57.8624 33.5983V24.8535L54.5185 21.5481H39.2381V18.4937H55.7883L60.9947 23.5983V34.8954L55.7883 40H0V0H60.9524C60.9524 4.10042 60.9524 8.21479 60.9524 12.3431H32.4233V18.5356H29.3333V9.24685C38.843 9.24685 48.3527 9.24685 57.8624 9.24685V3.09622H17.3968V9.24685H15.5344V3.09622H3.13229Z" fill="#242424"/>
</svg>
