<svg width="30" height="30" viewBox="0 0 30 30" fill="none" xmlns="http://www.w3.org/2000/svg">
<circle opacity="0.5" cx="15" cy="15" r="14.5" stroke="#FDFDFD" stroke-dasharray="2 2"/>
<path d="M20.993 18.0648C20.886 18.8779 20.4867 19.6242 19.8697 20.1643C19.2527 20.7045 18.4602 21.0016 17.6402 21.0001C12.8761 21.0001 9.00001 17.124 9.00001 12.3599C8.99854 11.5399 9.29562 10.7474 9.83578 10.1304C10.3759 9.51335 11.1222 9.11406 11.9353 9.00708C12.1409 8.98197 12.3491 9.02404 12.5288 9.12698C12.7085 9.22993 12.8501 9.38824 12.9325 9.57829L14.1997 12.4073V12.4145C14.2627 12.56 14.2888 12.7188 14.2755 12.8768C14.2622 13.0348 14.21 13.1871 14.1235 13.32C14.1127 13.3362 14.1013 13.3512 14.0893 13.3662L12.8401 14.847C13.2895 15.7602 14.2447 16.707 15.1699 17.1576L16.6303 15.915C16.6447 15.9029 16.6597 15.8917 16.6753 15.8814C16.8081 15.7928 16.9609 15.7388 17.1198 15.7241C17.2787 15.7094 17.4388 15.7346 17.5856 15.7974L17.5934 15.801L20.42 17.0676C20.6104 17.1497 20.7691 17.2912 20.8724 17.4709C20.9757 17.6507 21.018 17.859 20.993 18.0648Z" stroke="#FDFDFD" stroke-width="1.1"/>
</svg>
